<?xml version="1.0" encoding="utf-8"?>
<!-- Generator: Adobe Illustrator 19.0.1, SVG Export Plug-In . SVG Version: 6.00 Build 0)  -->
<svg version="1.1" id="Layer_1" xmlns="http://www.w3.org/2000/svg" xmlns:xlink="http://www.w3.org/1999/xlink" x="0px" y="0px"
	 viewBox="0 0 900 900" enable-background="new 0 0 900 900" xml:space="preserve">
<g>
	<g>
		<path fill="#FFFFFF" d="M166.5,166.4c76-76,177-117.8,284.4-117.8s208.4,41.8,284.4,117.8c68.1,68.1,108.8,156.3,116.4,251.3h18
			C862,317.9,819.4,225.2,748,153.7C668.6,74.4,563.1,30.7,450.9,30.7S233.2,74.4,153.8,153.7c-46,46-80,100.8-100.5,160.6l16.3,7.7
			C89.1,264.1,121.9,210.9,166.5,166.4z"/>
	</g>
	<path fill="#FFFFFF" d="M93.9,328.1l5.8-14.2l-9.9-23.7c0,0-9.3,22.3-10,23.8l-8.9,3.7c3.2-7.7,15-36.7,15-36.7l-5-12l-12,5
		c0,0-11.8,29-15,36.7l-3.7-8.9c0.6-1.6,9.7-24,9.7-24l-5,2.1L36.1,288l-5.8,14.2l18.8,44.8L93.9,328.1z"/>
</g>
<path fill="#FFFFFF" d="M841.9,580.8l-45.2,17.7l-6.1,14l9.4,23.9c0,0,9.8-22.1,10.5-23.6l9-3.5c-3.3,7.6-15.9,36.3-15.9,36.3
	l0.1,0.2c-17.9,31.8-40.2,61.3-66.6,87.8c-76,76-177,117.8-284.4,117.8s-208.4-41.8-284.4-117.8C106.7,672.2,67.6,594.5,54.9,510.2
	H36.8c12.9,89,53.9,171.2,118.7,236c79.3,79.3,184.9,123,297.1,123s217.7-43.7,297.1-123c28.1-28.1,51.6-59.4,70.4-93.2l0.3-0.1
	c0,0,0.3-0.8,0.9-2.1c5.7-10.5,11-21.2,15.8-32.1l2.7,6.8c-0.7,1.6-10.2,23.8-10.2,23.8l5-2l19-7.4l6.1-14L841.9,580.8z"/>
</svg>
